<?xml version="1.0" encoding="UTF-8"?>

<!DOCTYPE svg PUBLIC "-//W3C//DTD SVG 1.1 Tiny//EN" "http://www.w3.org/Graphics/SVG/1.1/DTD/svg11-tiny.dtd">

<svg version="1.1" xmlns="http://www.w3.org/2000/svg" 
x="0px" y="0px" width="580px" height="552px" 
viewBox="-0.254 -0.933 580 552" 
>

<desc id="desc6">
Created with: https://radostw.github.io/whoplotter/poland_voivodeships.html
Software licensed under MIT license (c) Radost Waszkiewicz 2023

Basemap file is derivative work by Radost Waszkiewicz (c) 2023.
Licensed under CC-BY-SA 3.0.

Original work CC-BY-SA 3.0 by odder:
https://pl.wikipedia.org/wiki/Plik:Wojewodztwa(blank).svg

This file contains a human-readable css stylesheet to facilitate making derivative maps easier. Each voievodship can be styled with selector based on TERYT abbreviations:
(for example for DS - dolnoslaskie)
</desc>

<style id="style_css_sheet" type="text/css">
    .DS,.KP,.LU,.LB,.LD,.MA,.MZ,.OP,.PK,.PD,.PM,.SL,.SK,.WN,.WP,.ZP
    {
        fill: #eee;
    }
</style>

<style id="custom_colors" type="text/css">    
/*
 * Color one voievodship example
 *
 * .MZ
 * {
 *     fill: red;
 * }
 *
 */     
</style>

<path id="path10_1_" class="PM" stroke="#BBBDBF" stroke-width="1.7133" stroke-linecap="round" stroke-linejoin="round" d="  M152.974,26.681l1.126,5.533l2.867,1.659l0.17,5.372l0.978,3.712l-1.999-0.285l0.019,2.855l-0.876,3.141l1.999,0.285  c0,1.566,0.448,3.755-0.898,4.871c-1.777,1.473-5.453,0.569-6.153,3.436c-0.461,1.891,0.673,2.645,1.089,4.262  c0.983,3.818,3.072,7.71,3.636,11.704c0.258,1.833-1.231,3.401-1.492,5.14c-0.192,1.267,0.663,2.51,0.962,3.711  c1.546-0.257,1.548-1.909,2.285-3.141h0.286c0.643,1.335,0.263,2.694,0.816,3.972c0.791,1.831,3.587,3.259,5.466,3.452  c0.182,1.35,1.148,3.519,0.073,4.693c-1.522,1.665-4.864-0.092-5.952,2.458c-0.773,1.811,2.102,3.152,2.167,5.127h1.999  c-0.578,2.216-3.29,3.314-3.677,5.425c-0.492,2.688,3.07,6.523,1.394,9.137l2.855,9.138c0.728-0.128,1.892-0.75,2.575-0.31  c0.889,0.574,0.292,1.709,0.86,2.423c1.344,1.687,3.7-0.27,4.274-1.542l11.256,0.942l6.162,3.056l1.334-3.998l0.431-3.708  l2.805-4.001l2.284,0.285l0.286,3.141c1.784,0.226,2.89,0.495,3.998-1.142h0.285l2.57,2.855c1.59-0.524,0.666-1.67,0.286-2.855  c1.508,0.064,2.805,0.619,3.712-0.857l2.284,1.428l2.285-3.141l-2.855-0.57l-0.572-4.855c1.6-0.074,2.785,1.146,4.285,0.873  c3.792-0.692,5.902-4.078,1.712-6.012v-0.286l5.71-0.856c0.323,2.139,2.154,3.328,3.997,4.283l1.428-1.428l0.857-4.568  c2.075,1.485,2.554,1.918,5.14,1.713l0.286,1.999l1.713-0.856l0.286,1.428h0.286l0.286-1.142h0.286l0.285,1.142  c2.919-0.532,2.939,1.113,2.285,3.427l7.424,0.933l3.141,0.494l0.571-1.712h2.855l-0.285,1.712h0.856  c0.21,1.435,0.816,2.168,2.284,2.285l-0.285-1.428c2.08,0,3.469,0.197,4.283-1.999h7.425l-1.428,7.996l7.996,0.57v1.428  c3.649-1.633,8.573-1.143,12.564-1.143c0.028-2.506,2.039-4.487,4.569-4.569c0.334-4.231,0.833-7.1,4.854-9.423l0.571-7.424  l6.222,1.671l2.345,2.326c-0.788-4.848,3.44-9.101,3.427-13.992h1.428v-1.713l-4.568-0.137l-3.593,1.197l-1.744-1.358l0.768-4.271  c-1.434-0.532-3.697-2.917-4.854-1.142c-1.262-0.731-2.075-1.369-0.856-2.57v-0.571c-1.03-0.411-2.599-0.745-3.212-1.77  c-0.502-0.839,0.394-1.66,0.412-2.524c0.054-2.403-0.514-5.461,1.013-7.668c0.74-1.066,2.758-1.088,3.079-2.356  c0.371-1.468-1.126-2.59-1.291-3.957c-1.622,0-2.173-6-2.284-7.139c-0.086-0.878-1.359-1.67-0.523-2.522  c1.296-1.324,4.812-0.43,6.519-1c4.64-1.546,8.838-4.156,13.136-6.425c1.524-0.806,4.05-2.014,4.568-3.76  c-1.989,0.069-3.709,2.109-5.426,3.052c-3.982,2.189-8.491,4.573-12.849,5.88c-6.607,1.982-14.569,2.62-21.417,1.968  c-1.667-0.159-3.519,0.252-5.14-0.212c-1.479-0.424-2.269-1.917-3.712-2.386c-1.358-0.442-2.652,0.026-3.998-0.71  c-1.281-0.701-1.695-2.194-2.897-2.859c-1.951-1.08-3.194-0.802-4.489-3.019c-1.86-3.186-0.708-7.922-1.241-11.422  c-0.413-2.702-2.158-4.244-1.938-7.139h-0.285c-3.007,2.682-1.878-4.44-2.468-5.421c-0.9-1.496-2.995-2.166-3.392-4.002  c-0.362-1.673,0.959-3.061,0.435-4.854l4.283,2.444l9.021,6.524l4.003,2.465l4.68,6.84c-0.006-9.048-12.771-14.058-19.417-18.045  c-2.31-1.387-4.591-4.671-7.139-5.256c-3.722-0.854-8.43,0.87-12.278,0.856c-0.986-0.003-1.874-0.532-2.855-0.477  c-7.306,0.41-14.396,3.565-21.416,5.248c-8.926,2.139-17.877,3.201-26.271,7.201c-5.271,2.513-8.75,7.228-13.707,10.036  C160.144,25.398,155.869,26.256,152.974,26.681z"/>

<path id="path12_1_" class="ZP" stroke="#BBBDBF" stroke-width="1.7133" stroke-linecap="round" stroke-linejoin="round" d="  M41.326,72.083c0.892,0.111,2.568-0.752,3.271-0.086c0.756,0.716-0.472,1.622-0.869,2.134c-1.499,1.937-1.26,4.789-1.26,7.09  c-4.953-1.017-8.067,5.004-8.756,9.423c-0.389,2.501,0.058,6.218-3.522,5.425c-0.484,1.632-1.742,5.866-0.286,7.139  c-0.346,1.104-0.252,3.793,1.142,3.998l-0.639,2.686l-3.167-4.862l-7.271-3.41l-4.343-4.979c-0.447,2.025-0.36,3.583-2.569,4.283  c0.765,3.177,1.458,6.734,1.687,9.994c0.116,1.654-0.407,3.545-0.024,5.14c0.47,1.952,2.016,3.456,2.468,5.425  c0.982,4.278,0.899,8.767,1.621,13.136c0.376,2.279,1.844,5.074,1.258,7.423c-0.501,2.012-2.761,3.071-3.359,5.14  c-0.629,2.176,0.123,4.389,0,6.568c-0.159,2.812-1.948,5.512-3.584,7.71c-1.446,1.942-3.432,3.735-5.494,5.007  c-1.335,0.823-3.099,1.307-4.159,2.512c-1.546,1.754-0.3,4.925-0.978,7.044c-0.398,1.242-1.672,2.354-1.636,3.707  c0.043,1.585,4.131,2.943,5.197,4.29c2.617,3.301,5.666,6.047,8.278,9.422c2.289,2.957,3.08,5.369,6.147,7.71h0.286  c2.215-2.662,3.292-2.181,6.281-1.427c2.208-3.797,4.221,2.738,7.334,0.282c1.018-0.803,3.251-4.411,3.456-5.708  c0.218-1.378-0.235-2.937,0.316-4.257c0.673-1.611,2.808-1.669,3.676-3.18c0.549-0.956,0.202-5.485,2.35-4.271l1.142-1.143  l-1.427-0.57l0.856-2.57c2.159,0.886,3.669,2.301,4.854,4.283c0.824-1.119,1.441-1.584,2.856-1.713  c0.211,2.795,2.357,1.916,4.283,1.23c3.688-1.314,7.469-2.968,10.851-4.943l-1.999-4.854l4.57,0.856  c1.809-3.352,7.43-5.55,11.136-5.711c0.629,4.663,5.391,4.867,7.995,1.713h0.285c1.147,1.466,2.214,1.082,3.713,0.285v-0.57  l-0.857-0.286c0.508-1.45,1.764-2.262,3.141-2.855l-1.142-2.285c2.681-0.009,4.844-2.76,4.854-5.425  c2.142-0.006,5.913-0.45,7.447,1.515c2.201,2.818-3.321,7.904,2.833,6.767c0.379,1.754,2.115,1.914,3.711,2.042  c3.204,0.257,6.674-2.602,9.709-3.47c0.452,1.125,1.146,1.129,2.284,1.143l-0.286-1.428c2.007-0.688,4.409-3.083,2.284-4.854v-0.286  c0.961-0.92,1.119-1.643,0.571-2.856c1.413-0.517,1.573-1.445,1.428-2.855c1.592-0.343,3.009-0.965,4.532-1.316  c0.747-0.171,1.532,0.308,2.236-0.124c0.942-0.58,0.736-1.914,1.27-2.758c0.905-1.429,2.505-1.337,3.955-1.227l0.285,1.427  c1.71-0.568,0.683-2.323,1.29-3.687c0.74-1.662,2.987-2.755,4.707-2.881c-3.672-5.792-14.622-3.891-13.706-12.564  c-0.91-1.018-0.288-2.493,1.143-2.751c0.908-0.163,1.659,0.653,2.569,0.65c1.726-0.004,6.172-0.596,7.71-1.33  c2.229-1.064,4.354-3.329,4.926-5.708c0.333-1.383,0.073-2.715,0.797-3.997c1.143-2.024,3.143-1.77,4.271-3.427h0.571l0.571,1.142  h0.286c0.849-1.3,1.33-1.868,2.855-2.285l-1.153-5.997l-0.768-2.95l3.634-5.044h-1.999c-0.007-2.077-2.918-3.955-1.92-5.681  c1.264-2.193,5.791-0.8,6.16-3.187c0.599-3.865-3.587-4.198-5.504-6.602c-1.008-1.264-0.372-2.829-1.02-4.233  c-1.298,1.271-0.641,2.891-2.855,3.14c-0.114-1.255-1.014-2.485-0.926-3.712c0.119-1.675,1.575-3.148,1.611-4.854  c0.054-2.467-1.643-6.293-2.545-8.592c-0.696-1.771-0.802-4.444-2.709-5.114c0.491-1.662,0.012-3.244,1.555-4.449  c1.515-1.183,4.271-0.706,5.412-2.183c1.49-1.93,0.443-4.449-1.827-4.504l1.143-6.566l2.284,0.285l-1.172-3.427l-0.137-5.331  l-2.766-1.433l-1.35-5.514c-3.766,0-7.673-0.196-11.137,1.534c-5.475,2.735-8.205,8.009-11.674,12.743  c-3.352,4.573-7.25,8.255-12.312,10.856c-5.097,2.619-10.401,1.246-15.705,2.391c-5.093,1.099-10.03,3.438-15.134,4.591  c-2.949,0.666-6.25,0.394-9.138,1.15c-5.267,1.378-10.12,3.917-15.42,5.316c-3.941,1.042-7.775,2.919-11.708,3.813  C47.595,70.015,43.757,70.265,41.326,72.083z"/>
<path id="path14_1_" class="PD" stroke="#BBBDBF" stroke-width="1.7133" stroke-linecap="round" stroke-linejoin="round" d="  M483.069,40.673v0.286c1.186,1.27,1.985,2.327,0.572,3.711c1.213,4.299-4.696,5.259-7.711,4.569l-6.159,3.787l-2.122,3.352v0.572  c1.668,1.135,2.071,3.028,3.418,4.393c0.616,0.624,1.544,0.105,2.282,0.455c1.122,0.536,1.834,2.275,2.056,3.433  c0.286,1.511-1.511,2.746-0.846,4.253c0.433,0.976,1.668,1.299,2.329,2.089c1.423,1.695,1.943,4.126,3.2,5.936  c1.093,1.578,3.274,3.258,3.746,5.141c1.079,4.314-1.819,5.979-3.121,9.427c-0.534,1.409,0.071,3.312-0.214,4.851  c-2.527-0.722-6.708,3.388-6.282,5.996l-2.283-0.571c-0.664,2.255-1.761,2.564-3.998,2.57l-0.572,4.854  c-3.704-2.305-4.842,1.04-7.63,3.217c-3.284,2.567-5.582,6.041-8.933,8.513c-1.618,1.193-4.235,1.335-5.563,2.475  c-1.227,1.05-1.129,2.631-2.716,3.5c-0.381-1.748-2.233-1.981-3.682-1.103c-1.799,1.092-1.088,4.218-3.185,4.916  c-1.678,0.559-3.477-1.327-5.127-1.499c-3.93-0.41-6.51,0.687-10.28,1.398c0.205,1.473,0.622,2.23,1.999,2.855  c-0.953,2.022,0.46,4.597,2.284,5.711c-0.794,1.165-1.189,2.025-0.856,3.426l1.428-0.571l1.999,2.57h-5.712v1.713l1.998,0.856  l-1.426,2.285c0.456,1.648,1.916,2.694,2.523,4.283c0.482,1.265,1.373,2.987,1.627,4.283c0.396,2.046-0.179,5.03,2.987,5.594  c1.262,0.225,3.05-0.437,4.282-0.741c0.604,1.347,2.208,4.978,4.025,4.96c0.881-0.009,1.786-1.126,2.543-1.533  c0.175,1.263-0.623,2.645,0.858,3.141l-0.288,1.142l-2.283-0.571c-0.333,1.346-1.303,2.546-0.194,3.788  c1.426,1.599,6.588,1.162,5.049,4.208v0.285l1.713,2.57l-1.713,1.143v0.286l1.142,3.712h1.428c-0.531,2.339,1.766,1.89,3.142,1.142  c0.985,1.394,4.12,0.782,5.137-0.457c0.453-0.556,0.337-1.375,0.981-1.82c1.94-1.328,5.013,0.117,6.446,1.42l-1.143,0.571v0.286  l1.998,0.857l-1.713,1.142h-0.285l-1.714-0.285l2.287,4.993l2.568,2.146h0.285c0.72-1.095,1.236-1.612,2.569-1.714v-1.713  l3.693,1.551l-0.255,3.588l-0.489,10.56l1.62,3.718c1.82,0.398,4.869,4.166,5.333,5.997c0.332,1.301-0.144,2.692,0.421,3.966  c0.451,1.027,1.671,0.94,2.141,1.833c0.563,1.063-0.181,2.184,0.763,3.191c1.36,1.45,3.881,3.294,5.906,3.515  c1.353,0.147,2.627-0.329,3.998-0.047c1.645,0.336,2.841,1.475,4.568,1.529c1.873,0.058,3.941-0.904,5.711-0.68  c3.655,0.466,7.233,3.091,8.28,6.395c3.035-0.722,4.81-0.499,7.709,0.286c5.258-9.005,8.707-20.259,17.254-26.812  c3.82-2.928,8.657-3.222,12.729-5.299c2.087-1.066,3.97-3.157,5.711-4.711c1.925-1.717,4.635-4.658,4.676-7.438  c0.03-2.218,0.23-4.976-0.259-7.139c-0.423-1.871-1.461-3.46-1.55-5.425c-0.092-2.013-0.233-4.29,0.074-6.282  c0.163-1.032,0.972-2.094,0.837-3.141c-0.554-4.272-3.275-8.143-4.151-12.279c-0.608-2.856,1.978-4.792,0.808-7.991  c-0.528-1.444-1.916-2.058-2.804-3.227c-1.144-1.502-2.034-3.669-2.968-5.344c-3.228-5.786-5.638-11.946-8.329-17.989  c-1.479-3.32-3.36-6.496-4.403-9.995c-1.662-5.577-2.961-11.28-4.469-16.847c-0.398-1.478-1.33-2.773-1.625-4.284  c-0.422-2.161,0.895-4.434,0.371-6.566c-0.297-1.222-1.439-1.991-1.904-3.141c-0.637-1.568-0.42-3.307-1.265-4.855  c-0.646-1.188-1.972-2.061-2.261-3.426c-0.497-2.335,1.877-4.119,2.202-6.282c0.306-2.051-1.27-5.268-2.069-7.138  c-0.976-2.281-2.475-3.133-3.746-4.973c-1.472-2.132-2.012-4.444-4.572-5.839c-1.833-0.997-4.177-0.464-5.971-1.46  c-1.875-1.042-3.601-2.734-5.525-3.647c-1.256-0.597-2.624,0.629-3.857-0.285c-1.04-0.771-0.579-2.159-1.42-2.969  c-0.757-0.728-2.018-0.413-2.838-1.061c-0.671-0.531-0.51-1.472-1.118-2.014c-0.757-0.674-2.04-0.574-2.971-0.791  C487.17,39.197,485.617,38.086,483.069,40.673z"/>
<path id="path16_1_" class="WN" stroke="#BBBDBF" stroke-width="1.7133" stroke-linecap="round" stroke-linejoin="round" d="  M319.163,39.531l-3.14,2.856l-5.712,6.281l-5.425,0.571l-4.569,3.997l-3.997,6.283l-0.855,0.571l2.284-5.711  c-0.903,0.324-1.309,1.374-2.297,1.503c-1.204,0.159-3.886-1.577-4.808-0.188c-1.289,1.937,2.627,4.402,2.047,6.378  c-0.426,1.451-2.445,1.155-3.173,2.366c-1.473,2.442-0.645,5.289-0.917,7.806c-0.082,0.765-0.99,1.489-0.536,2.27  c0.651,1.125,2.69,1.572,3.688,2.424c-0.561,0.297-1.769,1.353-0.544,1.79c1.522,0.544,4.734-0.118,5.562,2.272  c0.525,1.52-1.867,3.902,0.422,4.916c1.329,0.588,2.982-0.734,4.268-1.048c1.519-0.372,3.289,0.066,4.854,0.066l0.284,2.57  l-1.713-0.286c0.006,2.585-0.896,5.051-1.948,7.424c-0.497,1.125-1.686,1.946-0.907,3.141v0.286  c-0.889,0.95-0.876,1.727-0.286,2.855c-1.636-0.157-1.746-1.405-2.965-2.198c-0.946-0.614-4.977-2.127-5.834-1.055  c-0.544,0.678-0.749,3.205-0.869,4.109c-0.125,0.967,0.023,1.92,0.246,2.856c-4.464,1.061-4.778,5.657-4.854,9.423  c-1.964,0.006-5.783,1.604-4.275,4.245c1.108,1.94,3.067,1.276,3.132,4.035c2.14,1.133-0.019,2.337,0.32,3.998  c0.391,1.916,1.91,2.364,1.394,4.568c2.675,2.119-0.046,4.779,3.998,6.282c0.194-2.56,2.073-1.583,3.998-1.714  c0.094,2.143,0.494,3.783,2.856,3.999l-0.287,1.713l1.428-1.142l0.572,0.856c1.923-0.059,2.799,1.357,2.854,3.141l2.57,0.286  c1.188-1.461,4.348-2.169,5.751-0.447c1.448,1.779,1.31,4.862,3.671,6.159l-0.284,0.856c-2.342-0.298-2.284,1.618-2.284,3.427  c4.432,0.39,1.983,3.93,3.611,6.774c0.686,1.197,3.136,1.503,4.383,1.793l0.21-3.708l3.218-3.431  c2.087,2.217,0.813,4.743,4.282,6.264c3.53,1.548,6.745-2.882,9.423,0.589c4.332-3.119,9.53,2.265,14.195-0.332  c2.952-1.644,0.644-3.474,1.205-5.665c0.368-1.443,2.119-2.646,3.077-3.71c1.332-1.472,3.171-1.978,4.368-0.001l5.199-2.113  l2.024-0.464l2.771-3.704l-0.286-1.142c2.404-0.146,5.854,0.967,7.139-1.428l2.854-0.285l-0.855-1.428v-0.286  c1.625-0.9,2.421-1.425,4.282-1.142l1.713-2.285h0.287c2.473,4.398,5.873,1.141,7.995-1.999h0.284l2.285,1.142  c1.083-1.903,3.199-2.653,5.141-3.426v1.427c1.438-0.76,2.238-0.567,3.713,0l4.854-2.285l-0.285-1.141  c0.986-0.012,1.872,0.51,2.854,0.447c3.002-0.19,6.711-1.585,9.709-2.243c1.386-0.304,2.563-1.256,3.997-1.325  c1.428-0.069,3.508,0.073,4.854,0.541c1.291,0.45,2.542,1.534,3.986,1.383c1.865-0.195,4.222-9.692,7.437-3.943  c1.305-0.827,1.267-2.331,2.364-3.298c1.408-1.24,4.194-1.407,5.917-2.676c3.257-2.403,5.393-5.912,8.609-8.401  c2.722-2.109,3.962-5.397,7.666-3.328l0.285-4.854c2.24,0,3.621-0.067,3.998-2.57l2.284,0.57l4.569-6.567l1.713,0.571  c0.443-1.496-0.269-3.15,0.291-4.558c1.362-3.42,4.566-5.641,2.964-10.006c-0.748-2.035-2.975-3.519-4.025-5.425  c-1.57-2.847-2.296-5.521-5.512-6.853c0.267-1.362,1.441-2.97,1.316-4.289c-0.102-1.103-0.805-3.188-1.919-3.64  c-0.766-0.312-1.646,0.352-2.327-0.251c-1.248-1.103-2.921-4.025-3.638-5.527c1.559-0.574,1.524-1.94,1.714-3.427  c1.562-0.142,4.014-0.964,5.365-1.764c0.682-0.403,1.024-1.255,1.801-1.509c2.855-0.927,8.663,0.029,7.109-5.008  c1.63-0.906,0.817-2.448-0.569-3.141c-1.436,3.157-6.023,1.747-8.853,2.081c-9.366,1.104-18.869,1.129-28.27,2.284  c-12.973,1.593-26.344,3.276-39.405,3.594c-2.064,0.05-4.209-0.652-6.281-0.795c-7.169-0.49-14.249-0.722-21.417-1.405  c-16.794-1.597-33.823-2.438-50.541-4.987C325.062,41.564,322.169,40.113,319.163,39.531z"/>
<path id="path24_1_" class="ZP" stroke="#BBBDBF" stroke-width="1.7133" stroke-linecap="round" stroke-linejoin="round" d="  M16.483,80.079l-0.286,5.14l3.426-2.107l3.427-0.462l-0.57,3.14l8.761,1.639l0.947,4.358c0.345-2.296,1.579-5.75,2.846-7.71  c0.877-1.355,2.212-2.193,2.86-3.713c1.087-2.551,0.821-6.18,4.289-6.566v-0.571c-1.041-0.176-2.097-0.684-3.137-0.255  c-1.061,0.437-1.695,1.649-2.864,1.83c-2.809,0.434-5.862-0.121-8.562,1.295C23.04,78.499,22.141,83.167,16.483,80.079z"/>

<path id="path32_1_" class="ZP" stroke="#BBBDBF" stroke-width="1.7133" stroke-linecap="round" stroke-linejoin="round" d="  M12.485,78.651c-0.084,4.081-0.541,8.144,3.998,10.28L14.8,83.22l0.235-3.258L12.485,78.651z"/>
<path id="path36_1_" class="ZP" stroke="#BBBDBF" stroke-width="1.7133" stroke-linecap="round" stroke-linejoin="round" d="  M19.053,85.219h1.713l-0.572-1.428L19.053,85.219z"/>

<path id="path40_1_" class="ZP" stroke="#BBBDBF" stroke-width="1.7133" stroke-linecap="round" stroke-linejoin="round" d="  M16.483,86.646l1.427,2.855h0.286l2.284-2.57L16.483,86.646z"/>
<path id="path68_1_" class="KP" stroke="#BBBDBF" stroke-width="1.7133" stroke-linecap="round" stroke-linejoin="round" d="  M224.648,101.78c-0.012,1.329-0.115,2.235-1.143,3.142l0.286,1.427l-1.714,1.428l-3.711-1.999l-0.571-1.998  c-1.533,0.675-4.415-0.706-4.854,0.856c4.549,1.301,0.807,5.196-1.999,5.858c-1.612,0.38-2.625-0.975-4.283-0.718l0.849,4.075  l2.578,1.922l-0.856,1.142l-1.713,1.713l-2.284-1.713c-1.013,1.204-1.978,0.918-3.426,0.856c0.613,1.382,1.051,2.544-0.857,2.856  l-2.285-2.856h-0.285c-1.435,1.668-2.276,1.23-4.283,1.142l-0.286-3.14c-1.899-0.089-3.915,1.628-4.642,3.438  c-1.139,2.831-0.717,6.23-2.29,9.121c-0.997,1.832-3.104,2.939-4.343,4.599c-0.902,1.21-0.299,2.686-1.011,3.879  c-0.69,1.157-1.958,1.664-2.562,2.948c3.111,0.505,4.613,4.086,6.297,6.282c0.673,0.877,2.375,2.352,2.539,3.456  c0.125,0.846-0.379,2.64-0.837,3.355c-0.86,1.342-4.489,1.814-6,2.041v5.711l2.285,0.857l-1.713,1.428  c0.005,1.604,1.206,5.316-1.142,5.425c0.231,1.961,0.155,4.307-1.714,5.424c-0.015,0.683-0.222,1.331-0.24,2.01  c-0.084,3.158,3.092,1.393,4.809,2.193c1.469,0.684,2.59,2.141,4.283,2.08c1.393,3.36,3.637,6.2,3.427,9.994l-0.856-0.571  c0.005,1.603-0.211,8.383-3.427,5.14c-0.923,0.54-2.292,1.089-1.713,2.285v0.286c-1.319,1.271,2.548,2.194,3.426,2.284  c0.014,1.224,0.63,2.457-0.571,3.142v1.142l1.428-0.286l0.571,1.142c3.379-1.474,8.626-4.179,6.567,2l2.855,0.285l0.286,3.712h0.285  l2.856-1.713c-0.278-1.262,0.094-1.594,1.142-2.284l0.285,1.713l1.428-1.713h0.286c0.969,1.116,1.923,1.886,3.426,1.999  l-0.285,1.141l1.999-0.57h0.286l3.141,4.854c0.875-1.169,1.358,0.24,1.427,1.142l2.855-0.286l-0.856,2.856l1.428-0.856  c2.913,0.751,3.953,0.126,4.568,3.427c1.393,0.106,1.89,0.686,2.285,1.998c1.747,0.051,3.746,0.435,4.283,2.285l4.283-0.249  l5.997-4.32c0,3.172-0.793,7.727,3.923,5.747c1.137-0.478,1.847-1.973,3.218-1.841c2.378,0.229,2.957,3.46,5.423,2.947l2.685,1.552  l2.219,4.081l2.474,2.368l1.883,3.52l2.446-0.503l6.282-1.594l-0.286-1.142h1.143l0.285-1.713h0.571l1.999,3.713  c0.952,0.512,1.382,0.901,1.428,1.999c2.43,0.683,3.153-0.406,5.425-0.674c2.791-0.332,3.53,0.821,5.997-1.324l1.143,1.427  l3.715-5.188l-0.762-3.853l2.489-1.126l2.839-4.682c-1.325-0.904-2.763-1.655-2.285-3.426h0.285l0.571,0.57l3.143-5.997  l-3.999-1.713c0.757-2.307,1.948-3.98,4.284-4.854l-0.572-4.569h5.427l0.57-1.713l-1.143-3.427c-2.16-0.007-3.501-0.518-3.712-2.854  c-4.144-1.243-0.459-6.082,2.284-5.425c-0.581-2.542-2.86-4.628-2.284-7.425l1.998,0.857c2.014-2.248,2.922-3.067,3.999-5.997  l6.566,2.855c-0.262-3.286,0.483-5.862-2.569-7.71v-0.285c1.984-2.25-0.373-4.525,0-7.139l3.997-0.571  c0.398-1.377,1.688-1.684,2.251-2.885c0.48-1.02-0.237-2.366-0.403-3.396c-0.41-2.56,0.436-3.925-2.989-3.998  c0-1.875,0.003-3.764,2.284-3.998l-2.684-4.343l-1.345-2.753l-7.965,0.529c0.703-2.478-1.098-2.581-2.855-3.427l-0.571,1.143  l-1.141-0.286l0.284-1.713c-2.195-0.53-2.572-1.906-2.855-3.998c-2.227,0.028-3.077-0.801-3.712,1.714  c-1.085-0.578-2.613-1.295-3.006-2.572c-0.469-1.523,0.885-3.028-1.277-3.71l-1.336-5.058l1.051-3.224  c-1.299-0.81-1.162-2.237-2.328-3.025c-3.027-2.055-6.842-1.132-10.237-0.984c-1.37,0.061-3.166-0.415-3.998,0.869l-1.798-1.501  l-7.339-0.498l1.427-7.995l-6.562,0.308l-4.288,1.691c-0.336,1.109-0.871,1.341-2,1.427l-1.713-2.284l0.286-1.713  c-1.569-0.261-2.325,0.243-2.856,1.713h-0.571l-0.286-0.856l-10.279-0.572c0.611-2.16,0.97-4.123-1.999-3.427l-0.285-0.856h-0.286  l-0.857,1.142v-1.427c-1.38,0.261-2.055,0.03-2.284-1.428C226.919,103.673,226.429,103.136,224.648,101.78z"/>
<path id="path152_1_" class="WP" stroke="#BBBDBF" stroke-width="1.7133" stroke-linecap="round" stroke-linejoin="round" d="  M155.545,114.345c-1.493,1.117-3.238,1.158-4.266,2.86c-0.81,1.339-0.43,2.826-0.838,4.278c-0.702,2.501-2.969,4.539-5.175,5.835  c-1.533,0.901-5.833,1.312-7.661,1.473c-2.034,0.179-3.769-1.929-4.332,1.543l1.695,5.266l8.584,4.131l4.283,2.597v1.143  c-1.651,0.02-3.901,0.77-4.707,2.367c-0.823,1.633,0.536,3.809-1.86,4.201c-0.312-1.44-1.197-1.65-2.57-1.713v0.856l-2.447,3.25  l-6.033,1.378l-1.799,2.796l0.57,1.713l-1.427,1.143v0.286c1.743,2.069-0.304,3.966-2.285,5.14l0.571,1.428  c-1.374-0.005-2.192-0.09-3.141-1.143l-8.485,3.406l-4.649-0.55l-0.286-1.428c-0.926,0.164-3.466-0.642-3.983-0.058  c-0.551,0.623-0.538,2.671-0.575,3.485c-0.154,3.39,0.982,6.701,0.407,9.994c-0.327,1.87,0.33,3.81-2.131,3.998l0.571,2.285  l-3.142,0.285c0.122,1.519,1.398,1.41,1.79,2.623c0.209,0.646-0.304,1.264-0.169,1.923c0.254,1.25,1.154,2.367,0.372,3.692  c-1.17,1.979-7.544,1.927-9.701,2.612l0.571,3.141c-2.344,0.374-1.789,3.28-1.708,5.14c0.096,2.216,1.932,4.209,2.444,6.308  c0.229,0.942-0.632,1.763-0.112,2.7c0.872,1.573,3.382,3.367,1.661,5.27v0.571l0.856,0.285l-1.142,2.856h-0.286l-1.999-3.141  c-0.993,0.38-1.687,1.145-1.13,2.273c1.075,2.178,4.086,3.026,5.319,5.273c0.85,1.546,0.001,4.055,0.666,5.875  c-3.965,1.145-4.395,7.054-3.427,10.565c-1.634,1.436,1.621,4.1,1.395,5.971c-0.182,1.5-1.61,2.274-0.896,4.008  c0.48,1.171,2.555,2.195,3.5,1.157c1.9,0.773,5.022,3.502,1.427,4.57c0.048,2.293,2.351,6.042,5.114,5.526  c1.278-0.238,2.613-1.752,3.985-1.326c1.167,0.361,1.51,2.202,1.752,3.224l-0.857,0.286c0.759,2.85-0.626,2.755-1.142,5.14h3.711  c0.466,1.262,1.094,1.396,2.285,0.856l0.285,1.713l3.712-3.712c0.893,1.039,3.038,1.376,4.271,2.132  c1.148,0.703,2.702,2.591,3.557,3.664c1.306,1.639,0.578,3.061,1.2,4.743c0.491,1.332,2.839,3.504,3.968,4.383  c2.094,1.632,5.792,2.094,7.677,4.084c2.519,2.665-0.181,4.935-0.042,7.533c0.126,2.355,5.954,2.925,7.636,2.872  c0.086,1.976,1.894,6.312,3.832,7.253c0.995,0.48,2.233-0.123,3.214,0.465c2.419,1.445,3.167,4.156,6.661,3.133l-0.285-1.142  c1.248-0.174,1.951-0.043,2.855,0.857h0.57l0.286-1.714l2.856-0.857c0.978,2.662,3.201-0.081,4.854,1.429  c1.203-1.762-0.718-4.502,1.174-5.721c4.212-2.712,9.78,0.618,13.674,2.205c1.059,0.432,2.372-0.165,3.216,0.782  c2.229,2.501,6.242,8.653-0.36,8.729l1.799,6.853l0.894,2.394l3.303-0.646l4.854,1.394l0.571-1.713l2.284,0.572l0.286,2.283  c-1.057,0.174-2.201,1.014-1.987,2.272c0.276,1.639,2.108,3.039,2.427,4.865c0.21,1.2-0.596,2.254-0.695,3.428  c-0.13,1.557,0.785,4.31,1.66,5.604c1.057,1.562,3.451,1.697,4.327,3.182c0.621,1.057-0.36,3.226-0.592,4.35l-0.856-0.286  l-0.286,0.286c1.628,4.545,13.655,2.641,13.706-1.715l4.855-0.856l0.856-3.427c-2.028-1.846,0.723-4.845-0.856-7.424h-0.286  c-0.85,0.652-2.407,1.274-3.085-0.065c-0.401-0.794,0.014-1.921-0.154-2.79c-0.315-1.628-1.409-3.609-2.472-4.854l3.426-0.858  c0.535-2.654,1.979-1.438,3.67-2.553c1.505-0.993,0.823-3.227,0.328-4.584l1.999-1.429l6.854,3.998  c0.514-2.04,2.178-3.572,2.731-5.453c0.557-1.896-0.437-3.846-0.148-5.683c0.302-1.928,1.352-4.909-0.585-5.998l-0.285-2.854  l1.428-0.286l0.285-1.428l-1.142-2.855h1.142v-1.142c3.074-0.502,2.178-6.405,2.668-8.566c0.264-1.163,0.816-2.221,1.044-3.427  l1.142,0.284l2.855-2.568l0.571,1.998c3.487-1.255,5.142,0.138,8.566,0.57c0.679-3.92,5.615-5.753,6.021-9.696  c0.135-1.312-2.179-2.32-2.707-3.487c-0.576-1.272-0.076-2.797-0.744-4.234c2.508-1.295-0.42-3.914,0.865-5.884  c1.833-2.809,6.723,3.276,6.845-2.396h5.14c-0.203-1.302,0.776-2.465,0.475-3.649c-0.28-1.094-1.779-1.074-1.802-2.359  c-0.1-5.857,5.519-6.873,9.893-4.842l0.286-0.285l-0.856-1.713c1.245-0.438,2.653-2.317,1.051-3.375  c-0.922-0.609-2.322-0.131-3.335-0.051l0.857-5.711l-2.57-0.572l-1.142-3.711l-2.57-1.999v1.713c-2.725,0.932-4.81,2.145-7.71,2.7  c-0.706,0.135-1.633,0.91-2.34,0.457c-1.12-0.718-1.226-3.155-2.199-4.235c-1.257-1.392-2.484-1.681-2.599-3.776l-1.885-2.234  l-2.684-1.193c-1.268,0.212-1.739-0.182-1.999-1.427l-4.283-1.713l-1.142,1.999c-1.17,0.092-3.211,0.896-4.29,0.371  c-1.551-0.755-0.85-4.642-0.85-6.081c-2.006,0.225-5.279,3.556-6.568,5.14H233.5c-0.838-0.631-1.696-0.274-2.578-0.721  c-1.998-1.011-2.549-2.125-5.132-2.135c-0.172-1.52-0.791-1.95-2.285-1.999l-0.285-3.141l-3.998-0.286l-1.713,0.857l0.856-2.856  c-1.839,0.489-2.49,0.024-3.141-1.712h-0.571l-0.286,0.856l-1.142-2.57l-1.999-2.285l-2.855,0.285l0.571-0.856l-3.427-1.999  l-1.428,1.714l-0.285-1.428l-1.428,0.571v0.286l0.571,0.856l-2.57,1.143l-1.142,0.856l-0.286-3.712l-2.855-0.571  c0.352-0.739,1.224-2.537,0.809-3.34c-0.938-1.812-5.616,0.482-6.234,1.627l-1.428-1.143l-1.713,0.286l1.142-1.712l-0.57-2.57  c-3.89-1.112-4.81-2.979-1.428-5.426c0.809,1.12,2.301,0.978,2.955-0.317c0.729-1.441,0.19-3.276,0.187-4.823l0.857,0.286  c0.406-2.178-1.029-6.437-2.856-7.71l0.286-0.572c-1.564-0.98-3.204-2.422-4.903-3.119c-2.954-1.211-4.111,0.796-5.377-3.162  c2.21-1.665,2.606-4.292,2.284-6.853l1.428,0.286l-0.285-5.712l1.713-0.286v-0.57l-2.284-0.857v-6.282  c1.354-0.062,5.111-0.525,6-1.596c2.234-2.691-0.089-5.15-1.701-7.256c-1.847-2.41-3.127-4.973-6.298-5.996  c0.733-1.038,1.957-1.808,2.563-2.904c0.71-1.285,0.206-2.685,1.228-3.938c1.519-1.862,4.095-3.232,4.49-5.722l-3.426-0.571v-0.857  h-1.142c-0.67-3.145-5.939-1.514-8.281-1.767c-1.182-0.128-2.506-0.85-3.708-0.549c-1.375,0.343-1.83,1.793-3.431,1.722  c-3.126-0.139-0.957-4.515-4.854-2.263c-0.485-2.346-1.301-4.373-2.218-6.567c-0.291-0.694-0.426-2.106-1.085-2.545  C157.441,112.889,157.125,116.02,155.545,114.345z"/>
<path id="path186_1_" class="MZ" stroke="#BBBDBF" stroke-width="1.7133" stroke-linecap="round" stroke-linejoin="round" d="  M410.255,132.334l0.285,1.427l-5.331,1.834l-3.806,0.451v-1.142c-2.039,0.209-3.891,1.318-4.855,3.141  c-4.843-1.915-6.727,6.424-10.564,0.856l-5.712,2.856l0.857,2.284l-3.427,0.286l-1.142,1.999c-2.075-0.792-3.559-1.007-5.711-0.571  l0.285,1.143c-1.899,0.309-2.321,2.311-2.571,3.998l-6.853,1.713l-1.142,0.571c-1.533-4.475-10.104,3.456-5.711,5.997l-0.856,2.285  c-1.688,0.498-2.838,1.584-4.734,1.696c-3.07,0.184-9.047-3.414-10.971,0.017c-2.773-4.043-7.299,0.848-11.137-2.115  c-0.648-0.5-1.546-0.959-1.859-1.766c-0.268-0.695,0.534-2.966-1.014-2.592c-1.105,0.266-3.139,1.857-3.244,3.047  c-0.083,0.934,0.834,2.192-0.256,2.875c-2.032,1.273-6.391-2.251-6.763,2.55l-4.283,0.857l1.12,4.283l-0.324,2.51l1.737,2.071  l0.036,5.985l-6.566-2.856l-3.999,5.997l-1.998-0.857l0.857,2c-0.307,1.889,0.568,3.354,1.999,4.568v0.286  c-2.117,0.637-7.784,4.843-2.571,5.426c0.075,3.052,1.693,1.769,3.255,3.313c0.706,0.7,1.188,2.594,1.6,3.541l-1.443,1.823  l-4.552-0.111l0.569,4.569c-1.639,0.326-5.097,2.245-3.704,4.417c0.704,1.095,2.529,1.543,3.704,1.864  c-1.161,1.378-3.842,4.451-3.141,5.997l-1.428-0.285c-0.232,1.646,1.145,2.4,2.57,2.855c-1.322,2.83-2.807,5.128-5.71,5.997  l2.283,5.14l-1.142,1.143v0.286l1.998,0.571c0.405,4.478,3.85,2.482,6.65,3.371c1.805,0.574,2.422,2.066,2.773,3.768l5.425,1.142  v1.143h0.856v1.714l4.172-1.547l3.253,0.646l3.997-2.239c0.563,1.393,1.496,0.991,2.57,0.285v-0.285  c-0.614-3.148,2.993-1.478,4.568-1.428c0.131,4.042,4.337,2.902,6.438,5.036c0.987,1,0.169,2.342,0.172,3.53  c0,1.251,1.188,3.832,2.116,4.682c0.849,0.779,2.225,0.28,3.219,0.784c1.155,0.587,1.65,2.1,2.919,2.439  c1.188,0.318,2.571-0.264,3.535,0.752c1.193,1.263-0.529,4.71-1.649,5.724c-0.544,0.492-2.066,0.932-1.924,1.873  c0.295,1.935,3.29,1.356,4.131,2.613c0.612,0.912,1.289,2.544,0.529,3.549c-0.583,0.769-2.354,1.041-1.879,2.366  c0.878,2.448,5.306-1.971,4.095,2.345l3.142-0.285l1.713-1.143l0.571-1.428h0.285c1.226,1.195,2.452-0.244,3.979,0.418  c1.958,0.852,2.155,2.844,3.58,3.857c1.045,0.746,2.692,0.03,3.864,0.467c1.817,0.678,4.95,4.043,5.71,5.824h-3.141v0.57  c1.936,1.188,1.113,4.029,1.545,5.934c0.32,1.422,2.761,1.389,3.309,3.001c0.774,2.284-1.658,4.734-1.998,6.771  c-1.872-0.451-3.867-0.392-5.712-0.941c-3.129-0.94-6.98-3.571-9.819-0.088c-0.592,0.722-0.693,2.138-1.03,3.028l1.998,0.286  l1.142,5.996l2.286,0.57c-0.346,1.408-1.733,5.127-0.608,6.326c2.187,2.323,4.888-2.514,5.3,1.671  c0.04,0.383,0.08,0.756,0.024,1.142c-0.305,2.121-2.599,5.097-4.171,6.471c-0.811,0.705-2.109,0.915-2.668,1.875  c-0.816,1.415-0.353,3.279-0.163,4.788c2.004,0.457,5.049,0.449,5.425,2.856l-1.426,0.286v0.571l1.426,0.285l2.285,5.711  c1.449-0.36,2.277-1.035,3.713-0.286c2.021-1.335,5.806,1.783,6.49,3.998c0.306,0.994-0.409,2.389-0.493,3.427  c1.013-0.35,1.24-0.975,1.428-1.999l3.141,1.713v0.286l-0.571,0.571c1.473-0.186,3.139-0.118,4.558-0.554  c2.069-0.64,6.439-3.811,7.15,0.554c3.206-0.668,3.142-2.588,3.142-5.427c3.592,0.727,1.873,2.854,1.141,5.141  c1.367,0.683,3.296,1.907,3.815,3.453c0.282,0.841-0.439,2.138,0.357,2.778c0.836,0.674,2.304,0.143,3.253,0.077  c2.832-0.195,5.729-0.026,8.566-0.026l1.426,3.997l5.691,1.88l1.734-2.165c-0.233-4.071,6.518,0.201,6.853-3.997  c1.04,0.266,2.471,0.136,3.398,0.588c2.093,1.022,3.758,3.021,6.31,2.839c-0.516-1.716,0.812-2.19,1.208-3.712  c0.327-1.252-0.262-2.707-0.1-3.999c0.125-0.979,0.883-1.88,0.897-2.85c0.022-1.75-2.606-1.678-2.09-3.717  c0.682-2.681,3.68-7.15,2.94-9.708l-2.856,0.284l-0.285-1.428c1.842-0.336,4.218-3.74,3.051-5.618  c-0.555-0.893-3.462-1.817-4.479-2.091c0.705-2.93,2.065-3.354,4.569-2.57c0.005-1.932,1.033-3.559,1.062-5.425  c0.038-2.331-1.484-3.93-2.589-5.761c-0.545-0.905-0.362-2.204-1.37-2.798c-2.443-1.444-5.207,1.021-7.643-1.211  c-1.287-1.183-3.721-5.626-1.362-7.017c2.385-1.408,4.652,3.062,6.477,3.363c0.44-2.84,3.216-3.733,5.711-3.141  c-0.086-1.563-0.076-2.848,1.712-3.142l1.715-3.139c-1.584-0.459-1.65-1.372-1.428-2.856l-2.569-0.285v-0.572l3.997-1.711  l0.285-1.429c2.81-0.452,5.26-4.697,1.38-5.902c-1.217-0.379-3.307,1.873-4.185-0.125c-0.348-0.787,2.224-2.777,2.512-3.967  c0.848-3.495-4.499-6.073-1.309-9.312c1.639-1.665,4.029-1.234,5.768-2.435c1.144-0.79,1.616-2.405,3.26-2.446  c1.975-0.049,4.313,1.26,6.274,0.937c1.405-0.231,1.249-2.201,2.594-2.306c1.517-0.117,2.797,1.305,4.256,1.386  c1.458,0.082,1.612-2.428,2.833-2.207c1.433,0.262,0.262,2.928,2.042,2.767c1.629-0.147,3.933-1.327,4.817-2.667  c1.169-1.769,0.92-3.709,3.453-3.992c0.335,1.609,4.001,4.565,5.5,2.764c1.13-1.36-0.343-3.268,0.269-4.761  c1.408-3.441,6.802-1.41,7.938,1.141c0.916-0.229,1.889-0.937,2.854-0.737c0.968,0.201,2.011,1.432,3.049,0.894  c1.915-0.988,0.195-4.117,3.805-3.583l0.285-0.286c-0.349-0.656-1.259-1.516-1.248-2.284c0.015-0.833,0.968-1.351,1.506-1.846  c2.273-2.094,3.018-1.891,6.025-1.866c-0.684-1.041-2.536-1.323-2.821-2.599c-0.298-1.33,1.434-2.188,2.237-2.912  c1.868-1.678,3.06-3.909,4.01-6.196c-1.385,0.373-3.195,1.498-4.692,0.728c-0.981-0.508-0.725-2.111-1.449-2.893  c-1.092-1.169-4.88-2.583-6.422-3.056c-1.654-0.507-3.701,0.639-5.426,0.65c-2.008,0.014-3.261-1.145-5.141-1.532  c-1.533-0.316-3.083,0.288-4.567-0.058c-1.895-0.44-5.393-2.658-6.272-4.417c-0.379-0.761,0.104-1.7-0.33-2.398  c-0.643-1.037-1.914-1.072-2.351-2.446c-0.403-1.266,0.141-2.723-0.356-3.947c-0.783-1.918-2.628-2.625-2.97-4.903  c-1.522-0.242-3.712-2.35-3.845-4.003c-0.071-0.924,0.712-1.655,0.763-2.564c0.154-2.794-0.602-5.698-0.295-8.566  c0.098-0.917,0.829-2.418,0.224-3.258c-0.563-0.782-2.519-1.066-3.415-1.311l0.287,1.713c-1.464,0.018-2.125,0.258-2.571,1.714  h-0.57l-2.645-2.16l-1.039-2.98l-0.714-2.373l2.97-1.054l-1.999-0.286l0.855-1.142v-0.571c-1.272-0.773-4.466-1.609-5.824-0.563  c-1.46,1.121-1.511,2.171-3.599,2.882c-1.309,0.444-2.883-0.691-3.711,0.536c-1.239-0.562-2.171-0.903-2.571-2.284h-1.142  l-1.142-3.998v-0.286l1.714-1.428v-0.285c-0.828-1.212-0.826-3.206-1.605-4.12c-0.771-0.903-1.976-0.545-2.965-0.907  c-3.297-1.207-2.402-3.277-1.713-5.824l1.999,0.856l-0.571-3.711c-0.634,0.373-1.29,1.162-2.004,1.333  c-2.079,0.499-3.02-3.419-4.337-4.253c-1.483-0.935-3.282,0.778-4.796-0.12c-2.647-1.57-2.127-3.171-2.544-5.526  c-0.237-1.331-1.237-3.285-1.767-4.569c-0.648-1.572-2.084-2.635-2.543-4.283c2.904-0.964-1.33-2.896-0.071-4.398  c0.901-1.071,3.9-0.249,5.211-0.456l-1.999-2h-1.997l1.428-3.141c-1.66-1.374-3.012-3.582-2.284-5.711  c-1.396-0.635-1.711-1.399-2-2.855C416.366,131.656,413.825,133.14,410.255,132.334z"/>
<path id="path190_1_" class="LB" stroke="#BBBDBF" stroke-width="1.7133" stroke-linecap="round" stroke-linejoin="round" d="  M545.034,141.472l0.286,0.286L545.034,141.472 M99.578,158.319c-0.024,2.02-0.929,2.682-2.57,3.713  c0.138,1.552-0.95,1.68-2.285,1.712l1.144,2.285c-1.354,0.317-2.622,0.945-3.141,2.285c1.341,1.538-1.062,2.095-2.285,2.569  l-0.857-1.428h-0.285c-3.327,2.838-6.494,2.862-8.281-1.713c-3.066,0.134-6.268,1.625-8.84,3.241  c-0.888,0.56-1.552,1.971-2.608,2.15c-1.034,0.175-2.391-0.589-3.399-0.822l-0.286,0.286l1.999,4.854  c-3.836,1.105-7.368,3.458-11.136,4.839c-1.938,0.711-3.858,1.39-4.569-1.127l-2.856,1.999c-0.439-2.428-2.231-3.513-4.283-4.568  l-0.856,2.285l1.428,0.285c-0.505,1.388-1.229,1.346-2.57,1.142l-0.856,1.429c0.594,4.071-2.093,3.292-3.661,6.034  c-0.702,1.228-0.188,2.905-0.398,4.245c-0.238,1.528-2.88,5.74-4.228,6.438c-2.937,1.519-4.809-4.104-6.848-0.441  c-2.479-0.913-4.763-1.686-5.996,1.428c1.783,1.212,5.145,3.095,5.505,5.425c0.241,1.547-0.558,3.052-0.613,4.569  c-0.056,1.513,0.382,2.583-0.433,3.998c-1.858,3.229-5.692,5.387-5.244,9.709c0.136,1.315,1.034,2.447,1.376,3.712  c0.499,1.843-0.038,4.308,1.309,5.848c1.456,1.668,4.927,1.996,5.422,4.432c0.492,2.422-0.469,6.243-0.469,8.852  c0,1.284-0.257,2.865,0.856,3.712l-0.286,0.571l2.284,1.142c-1.441,4.867-0.174,10.763-2.323,15.42  c-0.863,1.869-2.884,4.458-4.274,5.996c-0.93,1.029-2.396,1.925-2.503,3.431c-0.12,1.696,1.377,2.791,1.924,4.278  c0.754,2.058-0.17,4.606,1.139,6.515c1.159,1.693,3.45,1.873,4.137,4.051c0.688,2.177,0.963,5.938-0.178,7.984  c-0.644,1.156-2.499,1.76-2.643,3.155c-0.239,2.333,2.652,3.192,4.149,3.998c1.264,0.684,1.723,2.13,2.886,2.893  c1.361,0.894,2.897,0.565,4.253,1.678c1.135,0.932,4.531,3.331,2.285,4.564c0.678,1.977-0.634,5.797,2.284,6.281  c0.239-2.708,1.377-2.618,3.713-2.569c0.382-2.404,1.708-2.059,3.257-3.312c1.79-1.448,2.772-3.458,5.309-3.54v1.713l2.57-0.57  c0.719,1.578,2.368,3.135,3.998,3.712c0.116-2.145,0.751-5.635,3.141-5.712l0.857-5.996l1.142,0.856l5.14-0.286h0.285  c1.688,2.397,6.209,4.465,5.711,7.711l3.712-2.856c0.468-1.707,0.745-3.508,2.855-3.712c0.179-0.975-0.214-2.81,0.305-3.598  c0.868-1.317,4.586-1.002,5.978-0.97l1.999-11.709c2.078-0.613,3.754-3.145,5.537-4.352c0.734-0.496,1.674-0.307,2.367-0.953  c1.472-1.379,0.583-2.924,3.232-2.404c-0.248-0.734-1.633-1.634-1.49-2.368c0.333-1.704,3.719-0.832,3.489,1.225  c2.869,0.094,4.697,3.55,7.995,1.999l-1.143,5.428c3.864-0.486,2.942,1.283,1.428,3.711l4.568,2.855  c0.887-3.875,4.068-5.258,6.203-8.281c0.718-1.016,0.444-2.051,0.862-3.141c0.511-1.337,1.832-2.305,2.929-3.143  c-0.562-1.35-0.136-2.673-0.655-3.996c-1.706-4.351-5.463-5.14-9.053-7.139l-3.426,3.711l-0.286-1.427  c-1.202,0.136-1.604-0.161-2.284-1.143h-3.712l1.753-2.844l-0.61-2.867l0.856-0.286l-0.856-2.855  c-1.896,0.044-3.931,1.902-5.71,1.391c-1.046-0.301-1.549-1.28-2.359-1.915c-0.903-0.706-1.787-1.329-1.797-2.612  c-0.013-1.61,2.37-2.034,1.291-3.972c-1.097-1.967-8.528-0.603-6.23-5.154c0.267-0.53,0.648-0.803,1.098-1.159  c-0.303-2.019-1.772-3.563-2.137-5.43c-0.218-1.113,0.312-2.302,0.327-3.422c0.053-3.882-0.048-6.46,3.523-8.566l-0.822-5.997  l-5.746-6.283l2.285-1.141c0.086,1.565,0.734,2.051,1.998,2.854l0.856-1.999l-0.856-0.286l0.856-1.142  c-0.316-2.352-1.763-3.237-2.528-5.177c-0.344-0.875,0.475-1.618,0.295-2.485c-0.401-1.941-2.263-3.807-2.578-5.771  c-0.336-2.094-0.444-4.966,1.671-5.986l-0.571-3.14l7.139-1.405l2.562-0.765l-0.301-5.97l-1.413-2.132l2.863-0.865l-0.57-1.999  l1.999-0.285v-17.704c2.937-0.858,2.335-4.781,1.999-6.854L99.578,158.319z"/>
<path id="path208_1_" class="LD" stroke="#BBBDBF" stroke-width="1.7133" stroke-linecap="round" stroke-linejoin="round" d="  M292.608,233.705c-1.619,1.604-3.355,2.7-3.426,5.14l-1.713-1.143c-0.794,0.454-1.639,1.241-2.57,1.351  c-1.642,0.194-3.061-0.92-4.723,0.066c-2.001,1.186-1.927,4.261-2.13,6.293c2.667-0.352,5.819,1.235,2.57,3.712l0.286,2.284  c-4.326-2.007-9.605-1.475-9.917,4.277c-0.08,1.458,1.574,1.577,1.814,2.869c0.221,1.191-0.735,2.116-0.463,3.419l-5.14,0.285  c-0.472,5.364-4.597-0.011-6.682,1.931c-1.184,1.102-0.02,3.299,0.02,4.588c0.119,3.755-1.765,6.631,2.949,8.614  c-0.746,1.156-1.219,2.698-1.974,3.73c-1.67,2.289-4.427,3.627-4.594,6.835c-3.614-0.46-5.442-1.901-9.137-0.57l-0.286-1.714  l-3.712,1.998l-1.023,5.713l-0.689,5.14l-3.142,2.283c0.02,1.711,1.719,3.595-0.571,4.284l0.286,2.854  c1.861,1.169,0.751,4.081,0.46,6.023c-0.215,1.425,0.479,3.037,0.385,4.542c-0.11,1.751-2.456,6.03-3.985,6.853  c-1.382-2.808-5.068-3.349-7.71-2.854c0.382,1.443,1.058,3.189-0.163,4.446c-1.775,1.824-3.432-0.016-4.12,3.262l-2.854,0.287v0.571  c2.168,2.269,1.608,5.036,2.283,7.709l2.856-0.856h0.286c0.511,0.896,1.103,1.779,1.062,2.854c-0.062,1.603-2.06,3.71,0.079,4.569  l-0.856,3.997l6.293,1.92l5.415,0.543l6.853,1.822l0.856,2.568c1.427-1.299,1.993-2.37,1.428-4.283  c3.151-0.367,3.263,1.92,3.711,4.569c2.483,0.029,2.487,2.767,4.57,2.844c1.141,0.044,1.657-1.152,2.618-1.528  c0.807-0.315,1.688,0.032,2.521-0.067c2.778-0.325,4.891-1.354,7.424,0.178l1.713-3.425l7.425,5.712l0.177,1.332l5.46,1.877  l4.345,1.52l2.614-3.584l3.966-0.289c-1.414,2.528,0.505,2.637,1.142,4.855c3.761-0.764,3.05,1.685,4.812,4.229  c2.009,2.904,3.183,3.354,3.183,7.192l5.021-1.916l4.975,2.201c0.596,4.723,2.611,2.781,6.28,2.856l5.006-6.854l-0.05-4.285  l2.471-6.567c1.109,1.131,2.54,1.363,3.68,2.382c2.073,1.859,2.091,4.105,5.456,4.472l1.144-9.137l-3.712-0.57  c0.559-1.876-0.449-4.01,0.094-5.687c0.348-1.073,1.697-1.603,1.993-2.663c0.312-1.146-1.453-2.014-0.301-2.999  c1.52-1.297,3.645-0.226,5.352-0.101c2.233,0.163,5.086-0.604,6.854-1.973h0.284l0.571,0.856h0.286l1.999-1.999l-1.428-3.141  c2.473,1.244,5.337-1.156,6.569,1.428l1.427-0.57l-0.571-2l0.856-0.286c-0.647-1.179-2.216-3.207-0.788-4.396  c1.019-0.855,2.556-0.429,3.144-1.9c0.653-1.635-0.486-3.414,0.378-5.114c0.71-1.396,2.397-1.517,3.396-2.635  c2.568-2.874,3.068-5.208,3.578-8.799c-1.765-0.325-3.023,1.539-4.813,0.486c-2.056-1.211-0.117-4.136-0.301-5.894  c-0.119-1.162-1.434-1.092-1.853-2.06c-0.583-1.345-0.949-3.62-1.313-5.096l-1.999-0.286c0.315-1.006,0.413-2.488,1.068-3.314  c2.928-3.696,6.769-1.039,10.067-0.129c1.763,0.484,3.648,0.444,5.426,0.873c0.863-1.748,3.072-4.951,1.751-6.959  c-0.727-1.103-2.57-1.233-2.96-2.495c-0.587-1.913,0.367-4.729-1.646-5.966v-0.57l3.142-0.287c-0.748-1.593-3.685-4.885-5.429-5.334  c-1.191-0.305-2.812,0.328-3.877-0.385c-1.653-1.104-3.529-6.805-6.399-3.133h-0.286l-1.142-1.141L356,277.678l-1.998,1.143h-3.426  l0.569-1.998h-5.14c0.577-1.521,1.281-2.115,2.855-2.571c-0.065-1.288-0.098-3.145-1.298-3.976  c-0.995-0.688-3.771-0.796-3.741-2.564c0.014-0.875,1.31-1.181,1.855-1.64c0.908-0.763,2.683-4.357,1.95-5.435  c-0.771-1.139-2.51-0.416-3.615-0.834c-1.225-0.463-1.759-1.862-2.943-2.419c-1.125-0.53-2.522,0.014-3.461-0.999  c-0.797-0.858-2.054-3.531-2.079-4.691c-0.028-1.208,0.883-2.521-0.18-3.526c-2.104-1.993-5.882-0.933-6.477-4.754l-2.283-1.142  c-1.194,0.356-1.86,0.809-2.285,1.999h0.571c-0.691,1.197-1.719,1.933-2.856,0.856c-1.484,0.434-2.664,1.849-4.282,1.941  c-1.026,0.058-1.848-0.851-2.83-0.75c-0.823,0.084-1.333,0.972-2.037,1.328c-1.961,0.994-2.789-1.051-3.414-2.519l-4.284-0.286  v-0.856h-1.141c-0.429-6.436-7.938-1.391-9.425-7.139C292.428,236.399,293.714,235.05,292.608,233.705z"/>
<path id="path216_1_" class="LU" stroke="#BBBDBF" stroke-width="1.7133" stroke-linecap="round" stroke-linejoin="round" d="  M512.767,237.702c-0.888,2.132-2.056,4.065-3.724,5.685c-0.762,0.741-2.498,1.622-2.369,2.88c0.131,1.298,1.94,1.866,2.952,2.287  l-0.285,1.142c-2.505-0.792-6.465-0.383-7.212,2.867c-0.241,1.065,0.909,2.026,0.929,3.129c-0.984-0.213-2.214-0.352-2.846,0.651  c-0.593,0.934-0.097,2.857-1.729,2.902c-1.04,0.028-1.807-1.001-2.85-1.05c-0.766-0.037-1.477,0.651-2.225,0.475  c-2.069-0.487-6.127-5.22-8.035-1.252c-0.543,1.127,0.185,2.519,0.119,3.701c-0.051,0.924-0.654,1.733-0.996,2.57  c-1.496-0.667-2.924-1.282-4.267-2.25c-0.594-0.43-1.177-1.421-2.015-1.296c-1.23,0.184-1.335,2.101-1.845,2.975  c-0.806,1.378-4.249,4.422-6.061,3.202c-0.816-0.549-0.739-2.049-0.948-2.916h-0.855c-1.642,3.911-3.995,1.714-7.139,0.856  c-1.482,4.73-5.242,1.246-8.566,1.668c-1.414,0.18-1.897,1.649-2.917,2.407c-1.801,1.341-4.738,0.65-6.095,2.839  c-2.162,3.492,2.752,5.695,1.619,9.363c-0.301,0.966-2.813,2.794-2.291,3.544c0.776,1.118,2.47-0.05,3.398-0.126  c1.105-0.09,2.443,1.613,2.743,2.578c0.58,1.872-3.202,3.323-3.598,5.14c-1.764-0.141-3.069,0.438-3.997,1.999h2.569  c-0.316,1.61-0.549,2.702,1.428,2.854l-1.428,3.426c-2.146,0.472-2.15,1.451-1.998,3.428c-1.622-0.384-3.479-0.523-4.812,0.683  c-0.597,0.541-0.917,2.059-1.769,2.196c-0.839,0.133-1.125-1.088-1.576-1.558c-0.762-0.786-2.649-1.979-3.794-1.772  c-2.904,0.52-0.046,6.196,1.147,7.119c2.2,1.692,4.861-0.398,7.085,0.765c1.41,0.736,1.17,2.131,1.905,3.298  c2.089,3.325,3.997,8.286,0.386,11.544c-1.04-2.584-3.066,0.204-3.427,1.712l4.459,2.587l-1.032,5.122l-1.714,1.43l2.569-0.287  l0.857,1.999c-2.248,1.123-3.689,7.275-3.714,9.71c1.438,0.43,2.14,1.132,2.571,2.568c-2.728,1.712-0.562,6.207-0.164,8.566  c0.201,1.18-0.527,2.248-0.325,3.428c0.218,1.253,1.239,2.184,1.521,3.427c0.656,2.924,0.15,6.184,0.778,9.126  c0.224,1.03,1.097,1.624,1.445,2.583c0.792,2.188,0.239,4.895,2.816,6.138c2.572,1.24,5.422,0.672,7.634-0.959  c0.938-0.691,1.77-2.052,2.882-2.425c1.284-0.432,3.084,0.705,4.257,1.149c0.654,0.245,1.567,0.314,2.074,0.833  c0.468,0.484,2.867,3.354,2.912,3.856c0.214,2.376-2.914,5.938-3.558,8.253c1.71-0.038,3.188-0.06,4.337,1.428  c0.473,0.611,0.531,1.507,1.182,1.964c1.263,0.886,3.06,0.665,4.476,1.074c3.322,0.953,4.169,2.912,7.71,2.102l1.142,1.713  c2.06-0.914,2.85,1.174,1.428,2.57v1.428c0.962,0.822,0.962,1.396,0.571,2.569c2.498-0.043,2.647,0.255,1.429,2.286l2.569-0.287  c-2.142,4.223-4.521,3.222-8.281,2.284l1.143,2.856l-3.428,1.426l-0.569,1.716c2.891-0.195,2.541,1.271,4.159,3.061  c0.655,0.722,1.671,0.901,2.407,1.507h0.286c2.37-1.441,5.319-1.131,7.996-1.379c0.556-0.052,2.578-0.246,2.39,0.798  c-0.42,2.335-4.007,0.752-4.104,3.723c1.88,0.434,3.771,1.493,5.712,1.579c3.975,0.175,8.281-0.846,12.277-0.681  c2.395,0.101,4.658,1.248,7.139,0.355c2.362-0.855,4.222-4.758,5.684-6.679c0.65-0.858,1.656-2.379,2.884-2.334  c1.303,0.05,2.979,1.59,3.998,2.334h0.286l4.854-3.712c1.063,2.389,2.12,3.956,4.855,4.566l-1.429,3.714l5.488,0.471l0.725,2.389  l2.354,2.279c3.996-0.947,4.297-4.762,6.66-7.398c1.26-1.4,3.193-2.052,4.164-3.737c0.919-1.599,0.416-3.459,2.038-4.709  c4.396-3.38,12.413-1.147,16.111-5.094c3.573-3.81,3.465-10.184,3.581-15.04c0.04-1.552,0.404-3.01,0.156-4.569  c-0.217-1.38-1.195-2.246-1.493-3.469c-0.275-1.142,1.611-1.588,1.146-2.735c-0.445-1.095-2.289-0.384-3.094-1.105  c-1.085-0.98-0.364-2.617-1.053-3.764c-0.688-1.143-2.427-1.137-2.688-2.64c-0.383-2.208,2.582-5.093,4.452-5.775  c1.031-0.377,3.675,0.621,3.287-1.362c-0.626-3.192-5.39-2.178-6.849-4.847c-1.64-3.005-3.897-6.216-5.051-9.425  c-0.685-1.908-0.736-4.835-1.69-6.504c-0.751-1.312-2.644-1.439-3.394-2.919c-0.651-1.285,0.179-2.961-0.588-4.173  c-1.549-2.44-5.145-4.11-7.009-6.424c-1.178-1.459-0.06-3.589-1.226-4.963c-1.391-1.636-3.896-0.798-4.991-3.286  c-1.42-3.222,2.698-7.451,1.688-11.138c-0.293-1.059-1.359-1.585-1.68-2.594c-0.316-1.002,0.509-2.326-0.206-3.23  c-0.597-0.757-1.793-0.187-2.534-0.729c-0.944-0.687-0.78-1.893-1.456-2.698c-0.664-0.786-1.912-0.393-2.517-1.379  c-0.869-1.414-1.309-4.822-1.653-6.502c-0.446-2.165,1.156-4.073,1.005-6.283c-0.126-1.827-1.852-3.935-1.021-5.71  c0.845-1.808,3.535-2.247,3.859-4.288c0.436-2.715-1.608-5.136-2.242-7.706c3.427-1.294,0.575-2.465,1.383-5.14  c0.558-1.848,1.988-3.124,2.647-4.854c0.674-1.776-0.028-4.855-0.701-6.568c-1.204-3.055-2.085-7.348-6.183-4.854  c-0.727-2.307-2.713-2.308-4.147-4.009c-1.289-1.535-0.568-2.897-2.993-3.702c-1.19,1.41-2.388,0.791-2.854-0.856l-2.831-0.532  l-1.732,0.602l-1.793-1.854l-1.949,0.744l-3.401-0.102l-0.052-4.278l-3.09-2.29H512.767z"/>
<path id="path252_1_" class="DS" stroke="#BBBDBF" stroke-width="1.7133" stroke-linecap="round" stroke-linejoin="round" d="  M103.004,285.389l-1.999-0.57c-0.645,2.095-1.195,3.572-3.712,3.426l-0.857,2.284c-1.086-0.242-1.732-0.046-1.714,1.143  l-2.569,1.427l-1.999,11.708l-6.282,0.286l-0.286,4.282l-1.142-0.285l-1.428,3.999c-2.304-0.383-2.058,2.506-4.283,2.854  c0.702-3.854-4.344-6.714-7.424-7.672c-0.928-0.29-3.856-0.581-4.61,0.148c-1.114,1.08-0.561,4.198-0.245,5.525  c-2.917-0.854-3.406,3.097-3.427,5.425c-3.073-0.923-3.558-3.424-7.139-3.141v-1.715c-2.525,0.138-3.318,2.08-5.035,3.541  c-1.597,1.359-2.834,0.611-2.96,3.313c-2.444-0.052-3.65-0.341-3.712,2.569l-1.999-0.286c-0.909,3.348,4.021,5.994,3.384,8.853  c-0.974,4.371-2.937,8.695-4.489,12.85c-0.588,1.576-0.398,3.283-0.924,4.855c-1.379,4.125-3.123,8.134-4.375,12.268  c-0.45,1.48-2.224,1.759-3.292,2.677c-1.755,1.515-1.947,3.773-1.441,5.9c3.21-0.025,7.498,1.476,10.566,0  c-0.266-1.119-0.881-2.257-0.751-3.428c0.262-2.379,3.705-7.703-0.962-6.854c0.048-0.636,0.098-1.157,0.458-1.713  c2.763-4.234,5.229,0.246,8.383,0.866c0.971,0.191,1.428-0.829,2.306-0.935c0.918-0.107,1.979,0.916,2.845,1.212  c1.278-2.392,4.528,0.479,4.98,2.284c0.493,1.974-1.156,3.721-0.929,5.699c0.302,2.618,4.288,4.411,5.2,6.863  c0.436,1.175-0.32,3.112,0.702,4.045c1.06,0.967,2.318-1.443,3.753-0.892c5.035,1.94,9.49,4.739,14.562,6.525  c2.091,0.734,3.966-1.766,5.985-0.163c2.374,1.882,2.917,6.14,4.295,8.76c1.596-0.542,4.568-2.429,5.539,0.016  c0.498,1.259-1.246,4.053,0.479,4.451c3.112,0.722,2.801-4.198,5.69-4.686c2.833-0.478,3.671,3.04,6.568,3.075  c-0.237-0.828-0.926-1.945-0.655-2.819c0.544-1.741,3.959-1.283,5.223-0.818c2.194,0.81,8.004,5.988,8.276,8.48  c0.09,0.831-0.717,1.567-1.001,2.308c-0.719,1.873-1.789,3.807-3.564,4.916c-0.894,0.561-1.892,0.342-2.83,0.708  c-3.409,1.344-7.112,4.566-5.835,8.642c1.143,3.644,5.376,2.713,7.27,5.711c0.779,1.234,0.516,2.671,1.081,3.942  c0.475,1.074,1.692,1.294,2.415,2.131c0.825,0.96,0.965,2.312,1.772,3.302c1.561,1.91,4.425,3.263,5.543,5.473  c0.782,1.549-0.029,3.508,0.384,5.14c0.604,2.383,5.65,7.085,8.189,7.085c4.169,0,6.074-6.695,8.732-8.991  c2.858-2.474,7.302-0.354,8.116-4.659c1.081,0.561,1.823,3.366,2.851,3.366c1.327,0,0.966-5.286,0.795-6.223  c-0.464-2.551-3.232-2.92-4.616-4.678c-0.795-1.007-0.264-2.455-0.699-3.604c-0.613-1.618-2.204-2.798-2.452-4.569  c-0.405-2.899,2.479-4.359,3.851-6.446c0.484-0.735,0.527-1.917,1.248-2.464c0.658-0.494,1.113-0.106,1.59,0.344l2.285,0.572  l1.427-0.572c-0.28-1.767,0.367-1.993,0.858-3.501c0.267-0.816-0.211-1.658-0.015-2.494c0.315-1.343,1.363-2.512,1.996-3.713  c0.46-0.874,0.444-2.521,1.486-2.915c1.976-0.751,4.549,2.461,6.637,0.633c1.463-1.279-0.562-4.1,1.601-5.428v-0.57  c-1.064-0.812-1.384-1.529-1.428-2.856c4.174-0.462,0.856-4.072,2.306-6.25c1.305-1.963,3.232,0.337,4.61-0.897  c0.913-0.816-1.046-3.334-0.875-4.56c0.308-2.188,7.021-3.998,1.956-6.281l1.142-2.856l3.711,1.144c0-3.951,0.484-5.692,4.854-5.141  l-0.57-1.427l2.284-0.287c-0.37-1.949-1.006-5.089,0.262-6.893c0.718-1.024,2.53-0.622,2.835-1.99  c0.256-1.148,0.53-3.086,0.239-4.241c-0.192-0.762-1.193-1.465-0.953-2.289c0.476-1.64,2.81-1.297,3.328-3.147l5.711,1.999v-0.857  l6.282-1.427c-1.133-2.29-2.981-4.069-3.358-6.854c-0.229-1.693,1.145-3.092,0.592-4.806c-0.683-2.122-3.996-5.763-0.375-6.901  v-1.714l-1.142,0.57l-1.142-1.143l-0.286,1.714l-5.14-1.509l-3.361,0.633l-1.121-2.836l-1.8-6.567  c0.785-0.188,1.81-0.165,2.51-0.578c3.649-2.158-0.296-6.427-2.105-8.103c-0.757-0.699-2.055-0.303-2.975-0.705  c-3.507-1.535-10.135-4.987-13.868-2.045c-1.099,0.867-0.149,4.221-0.695,5.72c-1.576-1.12-2.067-0.094-3.708-0.168  c-2.044-0.092-3.58-1.854-4.288,1.31l-3.426-0.856c-0.229,2.076-3.195,1.393-4.421,0.4c-0.844-0.686-1.22-1.846-2.195-2.392  c-1.022-0.571-2.307,0.01-3.313-0.588c-1.917-1.132-3.777-5.019-4.062-7.128l-5.711-0.858v-0.857l-2.284-0.569l1.784-4.569  l-0.927-3.997c-2.083-0.314-3.33-1.757-5.14-2.683c-0.905-0.463-1.975-0.468-2.763-1.154c-1.073-0.933-1.907-3.098-3.52-3.229  c-1.215-0.1-2.541,1.485-2.929,2.496c-0.418,1.093-0.145,2.125-0.863,3.142c-2.206,3.128-5.775,4.684-6.202,8.853l-5.14-2.855  l1.714-3.996l-3.141,0.284l1.427-5.14c-3.525,0.343-5.168-1.791-8.281-2.571l0.286-1.713c-0.61,0-3.665-0.356-3.295,0.84  C102.016,284.081,102.951,284.211,103.004,285.389z"/>
<path id="path262_1_" class="SK" stroke="#BBBDBF" stroke-width="1.7133" stroke-linecap="round" stroke-linejoin="round" d="  M359.997,334.219c-1.09,1.543-2.781,1.28-3.799,2.454c-0.955,1.104,0.596,3.218,1.229,4.111l-0.856,0.286l0.571,2.284l-3.182-1.011  l-4.813,0.154l1.713,2.855l-2.57,2.284h-0.286c-1.787-1.243-3.882,0.729-5.71,1.049c-2.165,0.379-5.133-1.359-7.085-0.142  c-1.345,0.838,0.507,1.96,0.169,3.065c-0.331,1.091-1.708,1.539-1.999,2.643c-0.442,1.681,0.515,3.773,0.063,5.665l3.998,0.285  c-0.672,2.273-0.486,4.54-1.228,6.853c-0.229,0.704-0.035,1.851-0.658,2.367c-2.262,1.88-4.392-3.389-5.319-4.204  c-1.077-0.945-2.377-1.011-3.361-2.161h-0.284l-2.188,5.997l-0.134,4.807l-4.816,6.616c2.838,0.212,3.937,2.369,3.711,4.853  l-2.57-0.855l-0.285,3.426c-2.103,1.131-2.228,2.205-4.855,1.999l1.346,2.311l-0.177,2.047l3.115,0.356l5.997,1.283  c-0.063,1.453-1.414,1.67-1.723,2.904c-0.494,1.984,3.115,1.589,4.008,1.093c0.104,1.405-0.111,3.15-1.465,3.947  c-0.723,0.425-1.709,0.294-2.244,1.028c-1.329,1.823-1.283,3.49-3.717,4.447c0.457,1.457,5.003,3.784,6.542,3.584  c1.276-0.167,1.757-1.705,3.168-1.702c1.297,0.002,5.139,0.754,6.222,1.352c1.062,0.586,1.294,1.661,2.636,1.853  c1.741,0.249,3.247-0.791,4.849-0.65c1.31,0.11,3.663,1.519,4.799,2.264c1.365,0.895,0.343,2.348,0.923,3.582  c1.323,2.806,6.984,6.921,1.131,8.279v2.285c3.081,1.071,4.615,2.278,3.142,5.426l1.141,2.283l2.285,0.572v0.571l-1.997,1.427  l2.283,0.286c0.817,5.103,6.487,0.515,8.852,0.01c1.166-0.247,2.165,0.679,3.308,0.156c1.567-0.718,3.326-2.106,4.973-2.505  c1.343-0.329,2.365,0.502,3.707-0.298c1.759-1.044,2.038-3.618,4.005-4.328c1.032-0.375,2.109,0.231,3.139-0.111  c1.067-0.354,1.769-1.331,2.856-1.662c2.826-0.859,5.968-0.907,8.852-1.504c3.36-0.697,5.697-3.658,9.139-2.323  c3.289-5.502,9.399-7.946,14.249-11.678c1.492-1.154,1.572-3.272,3.18-4.293c2.579-1.629,5.604-1.924,7.974-4.077  c2.966-2.697,3.229-7.536,5.157-10.761c1.219-2.038,5.917,1.4,4.848-2.885c2.699-1.049,2.119-5.856,2.751-8.281  c0.744-2.864,0.716-6.014-0.393-8.827c-0.373-0.95-1.188-1.554-1.404-2.596c-0.588-2.869-0.278-5.962-0.728-8.851  c-0.215-1.365-1.397-2.363-1.547-3.714c-0.189-1.767,0.48-2.999-0.108-4.854c-0.812,0.303-2.791,1.923-1.141,2.284  c-2.285,2.561-4.658-0.903-6.914-1.825c-0.89-0.36-2.118-0.244-3.08-0.459v1.429c-2.11,0.265-7.739-0.167-6.567,2.568h-1.144  c-0.064,2.131-1.784,2.389-3.427,1.564c-2.78-1.391-3.8-2.454-5.14-5.276c-2.751,0-5.53-0.108-8.279,0.012  c-1.098,0.048-2.376,0.515-3.351-0.21c-1.027-0.77-0.205-1.863-0.456-2.883c-0.39-1.579-2.456-2.849-3.904-3.2  c0.659-2.062,2.89-4.436-0.571-5.14c0,3.346-0.681,4.386-3.711,5.71c-0.061-1.838-1.491-3.046-3.427-2.732  c-1.202,0.198-1.845,1.168-2.895,1.637c-1.559,0.696-3.72,0.711-5.387,0.525c0.511-3.435-2.896-0.353-3.527-0.834  c-0.813-0.624,0.392-2.326,0.177-3.164c-0.499-1.945-3.101-2.547-3.787-4.567l-2.001,0.855c-1.787-0.757-2.687-0.371-4.283,0.571  l-2.569-5.997c-1.242-0.405-1.05-1.152,0-1.712C364.809,334.528,361.675,334.562,359.997,334.219z"/>
<path id="path300_1_" class="OP" stroke="#BBBDBF" stroke-width="1.7133" stroke-linecap="round" stroke-linejoin="round" d="  M194.665,346.781l-0.285,1.429c-0.986,0.085-2.89,0.255-3.212,1.438c-0.236,0.87,0.917,1.508,1.123,2.299  c0.267,1.027-0.02,3.421-0.371,4.407c-0.446,1.255-2.004,0.885-2.726,1.735c-1.539,1.815-0.618,5.256-0.238,7.254h-2.285  l0.571,1.427c-4.539,0.507-4.854,0.675-4.854,5.425l-3.713-1.142l-1.142,1.998v0.286c1.952,1.818,1.482,2.182,1.142,4.568  c-5.211,0.703-1.821,3.843-1.999,7.14c-1.439-0.005-3.755-0.987-4.841,0.229c-1.924,2.159,2,5.514-2.298,6.623  c0.045,1.385,0.368,2.097,1.713,2.571l-2.327,6.285l-6.804-0.404l-3.903,9.956l-1.528,3.009c-1.934-2.652-6.645,0.169-4.952,2.764  c2.873,4.397,9.41,5.96,13.774,7.961c1.674,0.771,2.062,3.353,3.483,4.544c1.743,1.458,3.856,0.845,5.643,1.915  c1.949,1.166-0.161,4.007,1.35,5.064c1.168,0.817,1.932-2.751,3.412-2.662c1.871,0.108,0.789,2.758,1.188,3.701  c0.598,1.41,1.663-0.373,1.801-1.014c2.449,0,4.923-0.223,7.303-0.223c0.964,0,1.699,0.535,2.691,0.213  c1.81-0.591,4.232-4.212,5.995-3.627c0.595,0.2,1.333,0.752,1.464,1.4c0.164,0.808-0.505,1.704-0.572,2.521  c-0.172,2.147,0.912,4.329-0.484,6.284c-1.166,1.632-2.715,2.697-4.69,3.014c-1.168,0.188-3.276-0.271-4.082,0.819  c-0.928,1.261,0.99,3.032,1.717,3.875c0.587,0.679,1.172,1.351,1.793,1.999h0.285c1.504-1.247,3.249-0.559,4.453,0.942  c0.795,0.993,0.552,2.721,1.069,3.912c0.74,1.704,2.058,1.925,3.129,3.219c0.866,1.045,0.998,2.206,2.206,3.031  c4.013,2.744,4.521-0.728,7.709-2.006c1.44-0.578,3.233,1.229,4.413,0.15c1.701-1.549-1.75-2.238-1.455-3.798  c0.19-1.002,1.488-1.269,2.029-2.065c0.971-1.433,1.016-2.9,1.289-4.526l-0.285-2.286l-1.142-0.57  c1.59-1.468,4.553,0.012,4.854-1.714l1.714,0.286l0.286-0.856c0.982,0.19,4.194,0.551,4.922-0.185  c0.856-0.861-0.203-2.069,1.096-2.774c1.963-1.067,5.267-1.573,5.688-4.18l1.428,1.141h2.57l0.571-2.284  c-1.799-0.816-1.752-2.363-2.569-3.996c1.938-1.4-1.163-3.739-1.143-5.712h0.857c0.319-2.513-0.242-3.084-1.142-5.426  c2.284-0.499,1.876-5.748,1.713-7.71l4.283,0.287c0.208,0.956,0.457,1.259,1.428,1.427c-0.023-2.663-2.896-4.459-2.323-7.133  c0.58-2.707,4.928-0.85,6.606-0.939c1.274-0.071,2.417-0.715,3.712-0.779c0.184-1.484-0.27-5.071-1.469-6.055  c-1.082-0.886-2.873-0.784-3.674-2.003c-1.157-1.767-0.757-4.92-2.566-6.221l4.284-4.574l-1.707-3.42l0.817-3.993l3.871-3.491  l1.636-5.65l-0.521-2.856l1.901-5.997c4.658-0.757-1.276-6.272-3.713-6.281c-0.053-1.05-0.399-5.372-2.198-4.667  c-0.59,0.231-1.875,3.656-2.085,4.381l-1.713-2.569l-6.567-1.892l-5.421-0.562l-2.864-1.734l-8.277,0.476  c-0.204,2.692-2.435,2.704-4.569,3.249c-3.416,0.874-8.183,2.243-9.708-2.107h1.143c0.248-0.66,0.43-1.306,0.57-2  c1.255-6.235-7.895-0.59-10.28-0.604C197.14,348.74,196.003,347.348,194.665,346.781z"/>
<path id="path302_1_" class="SL" stroke="#BBBDBF" stroke-width="1.7133" stroke-linecap="round" stroke-linejoin="round" d="  M269.764,354.777l-1.713,3.427h-0.286c-2.029-2.416-9.612-0.372-11.708,1.427c0.63,3.098-1.939,5.694-3.158,8.566  c-0.597,1.407,0.306,2.465,0.316,3.832c0.01,1.381-0.711,2.884-1.156,4.164c-1.113,3.198-6.503,4.485-5.193,8.853  c0.43,1.433,1.7,2.38,2.339,3.711l-0.285,0.286l-0.571-0.286l-3.999,4.283c1.689,1.093,1.445,4.472,2.432,6.162  c0.691,1.184,2.797,1.226,3.808,2.214c0.973,0.951,0.494,1.854,0.915,2.965c0.386,1.019,1.127,2.089-0.102,2.934  c-2.626,1.8-7.546-0.922-9.449,1.032c-1.667,1.713,1.341,4.453,1.854,5.829c0.217,0.58,0.32,1.914-0.613,1.938  c-0.831,0.02-1.571-0.965-2.561-1.021c-0.776-0.04-1.517-0.229-2.281-0.35c0.117,2.255,0.439,6.5-1.713,7.709l1.999,2.284  l-0.856,3.141h-0.857c-0.202,2.137,2.863,3.712,1.142,5.427c0.884,2.455,2.246,3.994,1.998,6.566h-3.14l-0.857-1.142  c-0.883,2.464-4.541,3.613-6.853,4.282l-0.286,3.428h-6.567l-1.143,1.428l-1.427-1.144l-2.285,0.572  c1.854,3.072,0.849,5.771-0.286,8.852c3.627,1.063,2.109,3.829,4.406,5.757c1.556,1.302,2.898-0.148,4.385,0.36  c0.843,0.284,1.137,1.448,1.671,2.072c1.25,1.457,2.874,2.16,3.53,4.089c1.462-0.005,2.382-0.073,3.141-1.428l6.252,1.368  l2.891,2.465l5.42-1.548l-1.143,4.283c3.078,2.043,0.713,2.854,0.909,5.71c0.196,2.846,0.993,6.127,2.618,8.516  c1.067,1.567,4.367,3.94,6.181,4.458c1.499,0.425,3.251-0.243,4.408,1.116c0.937,1.103,0.958,3.105,1.248,4.472  c0.472,2.23,1.585,4.312,1.961,6.567c0.2,1.2-0.27,2.858,0.386,3.932c1.219,1.993,4.312,0.04,5.866,1.379  c1.374,1.188,1.659,5.272,1.555,6.969c-0.079,1.281-0.296,3.034,1.428,3.306c1.466,0.231,2.628-1.185,3.994-1.422  c2.453-0.422,5.605,1.925,7.755-0.823c1.759-2.243,1.223-5.573,3.113-7.629c2.164-2.354,5.271-2.764,7.641-4.959  c2.13-1.979,4.821-6.594,8.046-6.462l0.857-2c-1.834-0.861-4.995-1.068-5.997-2.854c1.703-0.72,4.535-4.317,2.971-6.189  c-1.557-1.863-5.754-0.755-7.822-1.815c-0.962-0.493-2.673-2.036-2.897-3.135c-0.221-1.071,0.815-2.299-0.131-3.253  c-1.438-1.439-4.418,0.301-6.078-0.914c-0.594-0.437-0.925-1.093-0.749-1.826c0.828-3.409,0.432-5.626,0.428-9.138  c-2.378,0.207-4.297,2.176-5.71-0.572c2.89-0.592,1.602-3.578,2.419-5.711c0.793-2.073,2.479-2.752,3.569-4.435  c0.982-1.507,1.056-3.888,2.01-5.547c0.923-1.605,2.185-1.638,2.282-3.725l4.567-0.569c0.17-2.882,2.745-6.354,5.426-7.141  l-6.281-4.568c3.614-1.177,4.317-2.956,6.915-5.337c0.724-0.66,1.991-0.68,2.484-1.579c0.535-0.974-0.193-1.842,0.594-2.793  c-0.396-1.519-0.654-3.174,1.191-3.889c1.46-0.562,3.628,0.911,5.365,0.651c1.863-0.277,2.885-1.321,4.58-1.778  c1.045-0.28,2.097,0.161,3.142-0.016c0.82-0.14,1.577-0.871,2.404-0.843c0.77,0.028,1.358,0.654,2.164,0.614  c1.172-0.057,2.202-0.707,3.427-0.735l-0.285-1.716l4.282-0.569l-1.997-3.998c-1.247-0.083-2.046-0.603-3.142-1.145  c-1.131-0.558-3.413-0.793-4.021-2.045c-0.48-0.988,1.578-1.865,2.078-2.535c0.671-0.908,0.651-2.22,1.463-3.005  c1.54-1.484,3.919-1.095,3.333-4.121c-1.057,0.246-4.49,0.221-3.848-1.688c0.357-1.054,1.514-1.455,1.851-2.595l-5.452-1.297  l-4.257-0.131c0.375-2.629,0-2.722-0.856-5.141c1.039,0.083,2.339,0.548,3.234-0.17c2.324-1.865,0.605-5.295,4.476-4.684  c2.001-5.869-6.648-2.71-8.82-3.598c-1.305-0.535-0.84-1.886-1.512-2.824c-1.461-2.045-7.11-4.101-8.229-0.717h-1.713  c0-1.635,0.303-3.659-0.598-5.114c-0.776-1.257-2.227-1.779-2.888-3.168c-0.718-1.519-1.593-4.953-3.653-2.855h-0.287  c-1.021-2.221-2.583-2.82-1.998-5.425c-1.143,0-2.639-0.205-3.586,0.576c-0.84,0.687-0.585,1.954-1.262,2.781  c-1.428,1.737-4.275,0.604-5.146-1.072c-1.8,0.213-6.488-0.968-6.283-3.141L269.764,354.777 M298.892,368.197l0.285,0.287  L298.892,368.197z"/>
<path id="path308_1_" class="PK" stroke="#BBBDBF" stroke-width="1.7133" stroke-linecap="round" stroke-linejoin="round" d="  M445.662,382.762l-1.548,9.421l-1.592,4.57c-2.637,0.818-6.137-1.062-5.427,3.141l-0.57,1.428l-4.618,6.944l-8.169,4.212  l-2.661,3.87l-6.54,4.003l-6.28,5.527c0.174,0.939,0.535,2.173,0.157,3.103c-0.735,1.796-5.184,4.745-1.871,6.321v0.57l-1.713,0.571  c2.354,3.507,0.611,5.42,0.284,9.139l1.714,0.856h-1.143v0.572h1.999l-0.57,0.855v0.284l0.855,2l-1.713,0.856  c1.036,0.896-0.5,1.688-0.312,2.796c0.166,0.979,1.536,1.214,1.461,2.344c-0.073,1.086-1.227,1.536-1.716,2.375  c-0.752,1.306-0.396,4.062,0.455,5.241c1.503,2.073,7.14,0.671,7.332,3.521c0.149,2.17-2.609,2.282-4.08,2.285  c-0.354,2.27-3.699,2.753-5.711,2.854l1.615,3.426l0.556,2.848l3.826,0.387l2.368,1.612l3.342,0.865l2.701,10.28l-1.97,5.141  l2.46,2.712l-0.336,2.427l4.284,4.854l-2.284,0.857v0.285c1.131,1.437,0.913,3.926,0.57,5.712c1.892,0.784,3.319,1.52,5.425,1.416  c2.665-0.128,5.087-1.616,7.711-1.937c4.424-0.534,9.594,2.8,10.851,7.087c1.509-0.453,1.756-2.713,3.427-2.69  c1.077,0.016,2.152,1.018,3.141,1.397c3.86,1.479,4.626,2.832,7.233,5.852c0.762,0.885,1.854,1.515,2.384,2.584  c0.98,1.959-0.124,4.459,2.102,5.766c1.925,1.126,4.878,2.586,7.129,2.732c1.067,0.071,2.381-0.906,3.381-0.445  c1.25,0.577,0.078,2.204,1.257,2.896c2.605,1.529,4.462-0.419,6.784,0.24c1.896,0.54,1.959,2.939,3.723,3.648  c3.342,1.339,7.364,0.143,10.554,1.322c1.668,0.619,2.12,2.685,3.725,3.329c2.219,0.891,4.938-0.514,7.127,0.193  c1.863,0.606,3.248,2.976,5.408,2.779c2.112-0.192,0.783-3.538,0.722-4.761c-0.162-3.31-3.895-9.017-7.559-8.565l0.287-1.998  l-2.571,0.855c0.05-1.553,1.696-3.889-0.57-4.283c-0.038-1.891,1.045-3.272,1.13-5.14c0.219-4.756-0.893-9.669-1.954-14.279  c-0.498-2.165-1.032-4.569-2.028-6.565c-0.576-1.152-2.104-2.502-1.965-3.878c0.185-1.816,2.438-3.542,3.418-4.975  c1.851-2.711,2.85-6.183,4.78-8.757c0.811-1.083,2.173-1.582,3.007-2.677c2.898-3.806,4.561-8.623,7.201-12.55  c4.057-6.034,8.727-11.858,12.724-17.992c0.669-1.029,0.684-2.346,1.368-3.333c0.598-0.862,1.689-1.161,2.354-1.958  c2.837-3.404,5.377-7.411,8.131-10.986c1.331-1.729,3.504-3.671,4.307-5.711c0.738-1.876-1.021-2.535-2.495-2.568l-0.303-2.68  l-5.693-0.461l1.142-4h-1.429c-0.348-1.052-0.943-1.107-1.998-1.142l-0.856-3.141l-4.854,3.712h-0.286  c-0.914-0.94-2.871-2.612-4.284-2.441c-1.128,0.138-1.907,1.319-2.523,2.157c-1.751,2.364-4.241,4.768-5.471,7.423  c-1.568-0.525-2.725-0.048-4.284-0.142c-3.623-0.217-7.087-0.759-10.85-0.714c-1.555,0.02-3.028,0.717-4.569,0.642  c-1.291-0.065-5.98-1.067-5.95-2.756c0.03-1.893,3.867-1.324,4.522-3.312c-3.667,0-7.753-0.072-11.136,1.427  c-1.776-2.378-3.728-4.4-6.568-4.853l0.57-2c1.095-0.003,2.828,0.031,2.921-1.484c0.042-0.672-0.964-1.708-0.173-2.256  c0.656-0.457,2.215,0.464,2.962,0.551c2.534,0.285,3.542-0.797,4.855-2.806h-2.57v-0.572l1.429-1.714l-2.57,0.571  c-0.025-1.37,0.497-2.309-0.855-3.141v-1.428c1.155-0.834,0.845-1.978,0.284-3.142l-1.712,0.857l-1.144-1.714  c-3.282,0.755-4.051-1.216-7.139-2.101c-1.554-0.449-3.386-0.264-4.809-1.166c-0.863-0.548-0.779-1.607-1.404-2.347  c-1.146-1.351-2.798-1.018-4.352-0.954c0.737-2.659,3.135-5.271,3.575-7.991c0.214-1.317-1.029-1.617-1.771-2.399  c-1.884-1.977-3.236-3.394-6.37-3.79c-1.898-0.24-3.344,2.19-4.856,3.09C450.895,385.472,448.45,384.377,445.662,382.762z"/>
<path id="path384_1_" class="MA" stroke="#BBBDBF" stroke-width="1.7133" stroke-linecap="round" stroke-linejoin="round" d="  M330.302,417.598l-4.284,0.572l-2.57,2.854c-2.626-0.965-6.376-1.153-9.126-0.073c-1.701,0.669-2.632,1.494-4.58,1.729  c-1.59,0.192-3.126-1.257-4.569-0.84c-1.766,0.507-2.095,2.577-0.57,3.469v0.285c-1.524,0.614-0.608,1.671-1.34,2.824  c-0.937,1.479-3.175,1.011-2.944,3.172l-5.995,3.713l6.282,4.568c-0.969,0.306-2.278,0.529-3.019,1.266  c-2.847,2.853-1.97,7.291-7.262,6.73c-0.289,1.813-1.625,2.007-2.376,3.458c-0.857,1.656-1.033,3.812-1.917,5.34  c-0.979,1.701-2.787,2.291-3.569,4.338c-0.545,1.424-0.151,2.854-0.511,4.282c-0.206,0.814-1.505,1.682-1.359,2.505  c0.314,1.776,3.946-1.125,4.869,0.168c0.848,1.188,1.102,5.063,0.742,6.465c-0.288,1.131-1.693,2.436-0.796,3.619  c1.273,1.684,4.608,0.01,6.301,1.042c1.547,0.937,0.271,2.307,0.457,3.609c0.143,0.996,1.41,2.121,2.205,2.654  c2.235,1.502,6.444,0.045,8.313,2.016c1.804,1.908-0.83,5.566-2.651,6.478l5.997,3.711c-2.444,1.515,0.757,3.75,1.262,5.426  c0.788,2.604,0.757,5.434,2.162,7.996c0.756,1.379,2.188,2.266,3.084,3.546c0.836,1.197,0.985,2.739,2.355,3.512  c2.618,1.48,6.699-2.167,7.976,1.223c0.797,2.115,0.023,4.529,0.752,6.569c0.43,1.21,2.16,2.295,1.874,3.711  c-0.341,1.704-5.238,4.371-2.812,6.536c4.154,3.706,6.455-1.573,10.188-1.379c3.693,0.19,5.965,3.283,9.424,4.266  c0.097-2.246-0.154-5.423,0.914-7.425c0.687-1.283,2.043-1.907,2.709-3.151c1.022-1.923,1.426-3.838,3.801-4.643  c2.73-0.924,5.129,1.326,7.71,0.084c-0.37-0.984-2.381-3.829-1.764-4.837c0.327-0.533,1.802-0.374,2.335-0.395  c2.308-0.083,4.254,0.56,5.139-2.193l7.14,4.073l3.714-2.48l3.426-0.296l3.997-1.581c1.643,3.608,3.878,9.417,8.566,7.709  c1.082,2.782,4.639,2.97,6.743,0.982c0.95-0.896,1.192-2.295,2.169-3.178c0.863-0.776,2.156-0.76,2.956-1.629  c1.71-1.86-1.962-3.557-0.061-5.502c2.851-2.912,4.979,1.474,7.609,1.389c1.657-0.055,2.584-2.441,3.999-3.148  c1.92-0.958,5.273,0.088,7.139,0.807c0.416-1.656,0.772-4.237-0.572-5.426v-0.285l2.285-0.857v-0.285  c-1.789-0.811-3.136-2.295-3.427-4.282h-0.856l0.856-2.856c-5.114-1.416-1.171-4.285-0.946-7.424  c0.167-2.298-1.017-4.323-1.738-6.308c-0.34-0.934,0.126-1.916-0.356-2.829c-0.668-1.264-4.726-3.456-6.097-3.672  c-1.165-0.181-3.158,0.436-4.072-0.498c-0.828-0.849-0.402-2.479-0.702-3.54c-0.211-0.735-1.194-1.717-1.043-2.479  c0.152-0.762,2.056-1.017,2.677-1.207c1.682-0.518,2.098-1.543,3.47-2.14c1.247-0.545,3.739-0.175,3.242-2.439  c-0.453-2.078-5.183-1.273-6.681-2.65c-1.368-1.257-2.085-3.892-1.165-5.62c0.493-0.931,1.682-1.46,1.824-2.586  c0.14-1.117-1.187-1.365-1.379-2.324c-0.16-0.8,0.666-1.833,0.974-2.54l-0.857-0.857l1.714-0.571l-1.142-1.998l0.855-0.286v-0.285  l-2.284-0.284l1.429-0.858v-0.285c-0.72-0.113-1.453-0.26-1.471-1.161c-0.068-3.205,2.181-5.33-0.53-8.263l1.715-0.571  c-1.482-2.398-0.574-5.266,2.285-6.567l-0.285-2.854c-3.891,2.175-9.048,3.41-13.695,4.379c-0.976,0.206-1.62,1.04-2.585,1.231  c-1.231,0.24-2.444-0.188-3.698,0.212c-1.002,0.32-1.613,1.238-2.584,1.593c-1.1,0.402-2.302-0.251-3.411,0.181  c-1.997,0.78-2.374,3.726-4.533,4.676c-0.974,0.432-1.89-0.342-2.904-0.146c-1.858,0.355-3.405,2.109-5.223,2.673  c-1.104,0.342-2.17-0.604-3.342-0.267c-2.472,0.71-3.708,2.524-6.569,2.249c-1.832-0.174-2.558-2.122-4.569-2.503l2-1.999  l-3.426-3.141c1.498-2.393,0.41-5.458-2.856-4.57l-0.284-3.426l2.854-0.571c-0.028-3.358-2.27-4.738-3.815-7.423  c-0.525-0.916,0.037-1.869-0.359-2.768c-0.447-1.006-3.938-2.659-4.964-2.842c-1.947-0.352-4.655,0.643-6.852,0.468  c-0.141-0.679-0.274-1.276-0.923-1.661c-0.877-0.524-1.818-0.056-2.741-0.258c-1.508-0.33-4.354-2.429-5.374-0.062  C327.579,414.389,329.582,416.093,330.302,417.598z"/>
</svg>
